# xmcd CD database file
#
# Track frame offsets:
#	150
#	23755
#	58818
#	89349
#	106304
#	124629
#	149695
#	175641
#	211156
#	237125
#	263454
#	290816
#
# Disc length: 4243 seconds
#
# Revision: 0
# Processed by: cddbd v1.5.2PL0 Copyright (c) Steve Scherf et al.
# Submitted via: CDex 1.51
#
DISCID=a710910c
DTITLE=Blue box of Jazz - The Blue Box Of Jazz - NU Jazz
DYEAR=2007
DGENRE=Jazz
TTITLE0=Beady Belle: Ghosts
TTITLE1=Bugge Wesseltoft: GUBNUF
TTITLE2=Sidsel Endersen: Angel
TTITLE3=Silje Nergarrd: Kee On Backing Loosers
TTITLE4=Ketil Bornstad: Before The Light No4 
TTITLE5=Trio Exklusiv: Let Fat In
TTITLE6=John Scofield: Three Sisters
TTITLE7=Eivind Aarset: Dark Moisture
TTITLE8=The RU Factor: Family
TTITLE9=Pharoah Sanders: Astral Travelling
TTITLE10=Beady Belle: Big Balloon
TTITLE11=Bugge Wesseltoft: Skog
EXTD=YEAR: 2007
EXTT0=
EXTT1=
EXTT2=
EXTT3=
EXTT4=
EXTT5=
EXTT6=
EXTT7=
EXTT8=
EXTT9=
EXTT10=
EXTT11=
PLAYORDER=
